<?xml version="1.0" encoding="utf-8"?>
<!-- Generator: Adobe Illustrator 27.5.0, SVG Export Plug-In . SVG Version: 6.00 Build 0)  -->
<svg version="1.1" id="Layer_1" xmlns="http://www.w3.org/2000/svg" xmlns:xlink="http://www.w3.org/1999/xlink" x="0px" y="0px"
	 viewBox="0 0 2160.77 2232.1" style="enable-background:new 0 0 2160.77 2232.1;" xml:space="preserve">
<style type="text/css">
	.st0{fill:#FFFFFF;}
	.st1{fill:#323641;}
	.st2{fill:#DE7F07;}
	.st3{fill:#124A8C;}
	.st4{fill:#DF810B;}
	.st5{fill:#215593;}
	.st6{fill:#DE820D;}
	.st7{fill:#FAFBFD;}
	.st8{fill:#E08613;}
	.st9{fill:#E18A1B;}
	.st10{fill:#EAEFF4;}
	.st11{fill:#DF8410;}
	.st12{fill:#FDF8F1;}
	.st13{fill:#F8E5CE;}
	.st14{fill:#676A72;}
	.st15{fill:#2C5E99;}
	.st16{fill:#4D77A9;}
	.st17{fill:#F9FAFC;}
	.st18{fill:#37669E;}
	.st19{fill:#426EA3;}
	.st20{fill:#FDF8F2;}
	.st21{fill:#CDD9E7;}
	.st22{fill:#205593;}
	.st23{fill:#FCF2E7;}
</style>
<g>
	<g>
		<path class="st0" d="M80.38,116.05c666.67,0,1333.33,0,2000,0c0,666.67,0,1333.33,0,2000c-666.67,0-1333.33,0-2000,0
			C80.38,1449.38,80.38,782.72,80.38,116.05z M816.02,794.71c0,1.98-0.06,3.95,0.01,5.93c0.25,6.35,0.54,12.69,0.82,19.03
			c0.06,30.98,0.12,61.96,0.14,92.93c0,1.12-0.61,2.24-0.59,3.36c0.1,7.57,0.3,15.13,0.46,22.7c-0.28,1.57-0.79,3.15-0.8,4.72
			c-0.08,8.75-0.03,17.5-0.03,26.25c0,2.14-0.08,4.28,0.01,6.42c0.24,6.18,0.55,12.36,0.83,18.55c0.05,1,0.23,2,0.14,2.98
			c-0.88,10.74,8.4,23.59,21.92,22.07c3.29-0.37,6.67,0.16,9.98-0.1c12.37-0.96,22.55-8.28,22.1-21.89
			c-0.41-12.42-0.94-24.85-0.94-37.27c0-12.26,0.47-24.53,0.97-36.78c0.4-9.84,1.71-19.7,6.83-28.24
			c5.69-9.49,11.77-18.86,18.71-27.45c4.23-5.25,10.03-9.51,15.79-13.18c5.27-3.36,12.62,0.15,13.45,5.98
			c0.55,3.87,0.45,8.04-0.35,11.86c-3.16,15.04-11.64,27.24-22.1,37.97c-6.62,6.8-14.4,12.46-21.49,18.82
			c-2.15,1.93-5.01,3.43-3.16,7.77c9.95,23.36,19.94,46.67,32.84,68.61c12.71,21.63,27.19,41.74,47.3,57.27
			c16.28,12.58,34.39,19.58,55.17,19.6c16.35,0.01,31.5-4.63,46.21-11.07c2.21-0.97,3.61-3.75,5.39-5.7
			c-0.37-0.42-0.73-0.85-1.1-1.27c-1.15,0-2.35-0.23-3.44,0.03c-12.4,2.99-23.87-0.56-34.42-6.25
			c-20.52-11.07-35.64-28.23-48.68-47.09c-9.27-13.42-17.88-27.36-25.87-41.57c-7.16-12.74-13.08-26.18-19.41-39.05
			c0.66-0.81,0.82-1.16,1.09-1.31c1.14-0.62,2.37-1.09,3.47-1.77c22.09-13.66,37.73-31.21,36.72-59.31
			c-0.93-25.78-23.02-41.31-47.17-34.89c-18.56,4.93-31.91,17.39-43.88,31.63c-3.51,4.17-6.99,8.36-10.49,12.53
			c-0.6-0.15-1.21-0.3-1.81-0.45c0.5-16.46,1-32.92,1.5-49.38c0.28-6.08,0.74-12.16,0.79-18.25c0.03-4.25-0.51-8.5-0.79-12.75
			c-0.71-12.18-1.23-24.38-2.18-36.54c-1.46-18.86-17.54-22.86-30.53-22.19c-11.04,0.57-21.85,3.37-31.71,8.81
			c-5.27,2.9-11.29,4.81-14.57,11c2.08,0.49,4,0.46,5.76-0.09c4.02-1.26,8.35-3.73,11.81,0.11c2.43,2.69,3.6,6.52,5.34,9.84
			C816.04,776.66,816.03,785.69,816.02,794.71z M1297.61,935.63c0-9.66,0-19.32,0-28.99c0-9.99,0-19.99,0-29.98
			c0-8.65,0-17.3,0-25.95c0.05-1.83,0.15-3.66,0.15-5.49c0.01-24.81,0.09-49.62-0.06-74.43c-0.02-3.93,1.08-5.57,5.1-5.1
			c4.07,0.48,8.17,0.85,12.26,1c17.06,0.62,32.85,5.74,47.82,13.61c9.24,4.86,11.49,2.68,13.66-6.18
			c2.93-11.99-1.56-20.24-12.36-21.27c-18.15-1.73-36.35-3.36-54.56-3.95c-15.72-0.51-31.51,0.08-47.22,0.95
			c-12.89,0.72-25.91,1.65-38.54,4.14c-23.11,4.55-45.54,11.4-64.24,26.78c-8.1,6.66-14.82,14.66-18.52,24.41
			c-2.72,7.16-3.75,15-5.22,22.6c-1.98,10.22,1.24,19.14,7.65,27.03c9.09,11.19,21.23,14.66,34.96,12.73
			c6.4-0.9,11.97-3.94,16.55-9.13c4.55-5.16,6.09-11.24,6.59-17.47c0.41-5.06,0.89-10.71-4.38-14.56
			c-5.91-4.31-11.59-3.42-17.41-0.15c-2.39,1.34-4.68,2.9-7.15,4.07c-8.58,4.08-15.48-2.25-16.5-8.5
			c-1.46-8.89-0.07-17.61,6.69-24.65c8.64-8.99,18.84-15.75,30.59-19.57c12.88-4.18,26.07-7.45,39.22-10.73
			c3.13-0.78,7.19-1.16,7.18,4.42c-0.06,23.64-0.02,47.29-0.04,70.93c0,3.17-0.1,6.34-0.15,9.5c-0.28,1.09-0.8,2.17-0.8,3.26
			c-0.05,14.47-0.05,28.94,0,43.4c0,1.09,0.52,2.18,0.8,3.26c0.05,4,0.15,8,0.16,12c0.01,27.3-0.05,54.6,0.04,81.9
			c0.04,10.51,6.82,20.75,17.52,22.05c4.22,0.51,8.47,0.9,12.71,0.98c16.45,0.3,27.11-9.03,26.79-25.84
			c0.3-0.72,0.86-1.43,0.86-2.15c0.01-9.32-0.05-18.64-0.1-27.95C1297.61,953.62,1297.61,944.63,1297.61,935.63z M186.5,845.67
			c0,12.32,0.01,24.64,0.01,36.97c-0.06,36.98-0.23,73.95-0.03,110.93c0.02,4.56,0.94,9.84,3.35,13.54
			c9.79,14.99,29.96,15.43,42.68,8.64c9.2-4.91,11.38-13.4,10.83-23.03c0.32-1.7,0.91-3.4,0.92-5.1
			c0.06-21.15,0.06-42.31,0.04-63.46c-0.03-26.81-0.11-53.62-0.16-80.44c0.06-24.14,0.23-48.29,0.06-72.43
			c-0.03-4.58,1.76-5.93,5.79-5.55c3.1,0.29,6.21,0.52,9.28,1.02c9.61,1.57,19.45,2.44,28.75,5.12c9.89,2.85,19.27,7.46,29.23,11.44
			c4.88-5.35,8.73-11.87,6.74-19.67c-1.88-7.39-8.64-10.01-15.42-10.82c-14.16-1.7-28.38-3.55-42.62-3.89
			c-18.73-0.46-37.51,0.07-56.24,0.95c-12.08,0.57-24.14,2.18-36.12,3.92c-19.75,2.87-38.77,8.31-55.88,18.93
			c-23.85,14.81-38.51,34.58-35.46,64.55c2.25,22.06,23.78,34.24,44.17,29.71c16.28-3.62,23.04-16.43,21.91-31.75
			c-0.57-7.69-7.66-13.76-14.84-10.73c-6.24,2.63-12.88,4.35-19.43,6.17c-5.37,1.49-8.91-0.67-10.76-6.01
			c-4.15-11.96,1.44-25.9,12.93-33.98c17.39-12.23,37.12-18.42,57.53-22.82c3.97-0.85,8.28-0.11,12.43-0.1
			c0.04,2.66,0.12,5.32,0.12,7.99C186.39,799.06,186.44,822.36,186.5,845.67z M1765.71,963.6c-0.06,12.33-0.34,24.67-0.06,37
			c0.13,5.78,3.11,10.55,7.88,13.97c9.86,7.06,20.55,6.07,31.37,2.98c11.65-3.33,14.66-6.34,14.63-19.9
			c-0.06-34.47-0.09-68.93,0.07-103.4c0.02-4.4-0.73-9.7,3.61-12.63c7.36-4.98,14.82-9.97,22.77-13.89
			c12.62-6.22,20.17-4.21,28.32,6.19c3.12,3.98,5.26,3.73,7.07-1.33c2.73-7.64,4.47-15.24,3.32-23.74
			c-2.1-15.53-12.11-20.03-26.06-16.05c-11.66,3.33-20.29,11.67-28.01,20.71c-3.61,4.23-6.8,8.82-10.83,14.11
			c-0.53-3.59-1.19-6.11-1.23-8.63c-0.24-16.88-10.94-25.99-25.59-27.2c-16.48-1.36-31.61,3.43-45.35,12.43
			c-2.29,1.5-3.86,4.1-5.77,6.19c2.93,0.06,6.03,0.78,8.75,0.07c7.73-2.04,13.56,1.89,13.93,9.94c0.39,8.41,0.78,16.83,1.16,25.24
			C1765.71,911.66,1765.71,937.63,1765.71,963.6z M557.98,951.67c0.11-4.69,0.22-9.37,0.33-14.06c0.28-1.59,0.78-3.17,0.79-4.76
			c0.07-10.47,0.07-20.94,0-31.4c-0.01-1.59-0.52-3.17-0.79-4.76c0.41-5.03-2.08-10.39,2.94-14.8c8.96-7.86,18.87-14.07,30.42-16.83
			c7.6-1.82,15.81-0.54,20.17,8.87c0.79,1.7,1.81,3.29,2.95,5.35c1.31-1.25,2.5-1.87,2.88-2.82c3.89-9.79,6.77-19.74,4.41-30.45
			c-1.93-8.75-12.64-16.82-20.25-15.18c-12.94,2.78-22.36,11.13-31.22,20.15c-4.39,4.47-8.13,9.58-12.75,15.1
			c-0.67-4.03-0.96-7.25-1.77-10.34c-2.71-10.26-7.59-18.92-18.56-22.22c-13.81-4.15-27.31-2.32-40.1,3.67
			c-6.63,3.1-12.62,7.58-19.18,11.6c3.4,4.45,6.29,2.54,8.9,1.74c7.09-2.16,11.41-0.37,13.58,6.27c0.89,2.75,1.33,5.75,1.4,8.64
			c0.49,19.4,0.83,38.81,1.22,58.22c0,16.31,0,32.62,0,48.92c-0.39,8.73-1.13,17.45-1.05,26.17c0.06,6.09,1.66,11.75,7.7,15.33
			c10,5.93,20.55,6.86,31.55,4.28c9.08-2.13,14.19-7.85,14.62-17.42c0.24-5.41,0.67-10.82,1.02-16.22c0.31-0.87,0.9-1.73,0.9-2.6
			C558.1,971.97,558.03,961.82,557.98,951.67z M1660.44,885.68c-0.28,1.57-0.8,3.15-0.8,4.72c-0.05,13.71,0,27.42,0.01,41.13
			c0,12.06-0.01,24.13-0.01,36.19c-0.78,1.57-1.35,3.29-2.37,4.69c-7.01,9.57-16.42,15.45-27.9,18.32
			c-5.12,1.28-10.4-0.85-11.51-5.8c-1.14-5.06-2.11-10.3-2.14-15.46c-0.19-34.62-0.01-69.24-0.19-103.86
			c-0.03-5.67-0.83-11.44-2.05-16.99c-2.01-9.15-10.53-16.34-18.7-16.96c-13.78-1.05-26.65,1.69-38.49,8.85
			c-6.36,3.85-13.45,6.95-16.56,14.47c-0.47,1.14-0.72,3.29-0.13,3.75c0.91,0.71,2.85,0.84,3.99,0.35c2.66-1.15,5.05-2.9,7.64-4.23
			c4.09-2.1,9.11,0.19,9.34,4.65c0.59,11.05,0.78,22.13,1.07,33.2c0.07,2.66-0.09,5.32-0.14,7.98c0,9.65,0,19.3,0,28.94
			c0.06,3.16,0.1,6.32,0.17,9.48c0.33,15.41,0.17,30.85,1.17,46.22c0.68,10.51,4.91,19.93,13.98,26.27
			c15.4,10.77,31.48,8.45,47.4,1.63c11.77-5.04,21.32-13.33,29.98-22.66c1.39-1.5,2.92-2.88,5.03-4.94
			c0.64,2.79,1.39,4.49,1.35,6.17c-0.38,15.97,11.54,25.23,25.11,26.73c19.97,2.21,35.79-5.84,48.32-20.98
			c1.42-1.71,2.04-4.08,3.03-6.14c-0.45-0.44-0.89-0.88-1.34-1.32c-1.76,1.06-3.49,2.2-5.3,3.17c-2.85,1.53-5.14,4.74-9.19,2.6
			c-3.85-2.03-5.74-4.65-5.71-9.31c0.17-35.97,0.22-71.95,0-107.92c-0.06-9.18-0.97-18.38-1.98-27.51
			c-1.06-9.53-8.82-17.44-18.32-18.3c-7.11-0.64-14.39-0.71-21.49-0.01c-15.15,1.49-25.4,10.98-34.02,22.54
			c-0.89,1.19-0.35,3.44-0.55,6.31c5.12-2.87,8.69-5.13,12.48-6.93c4.23-2,8.31-2.43,8.07,4.84
			C1659.92,868.27,1660.18,876.98,1660.44,885.68z M1154.98,1435.3c-8.24-0.3-16.48-0.69-24.72-0.86c-2.16-0.05-4.34,0.56-6.52,0.86
			c-11.42-0.31-22.84-0.55-34.25-0.94c-5.76-0.2-11.53-0.52-17.27-1.03c-14.04-1.24-28.07-2.54-42.09-3.98
			c-7.3-0.75-14.55-1.96-21.84-2.76c-5.71-0.62-11.46-0.92-17.2-1.36c-0.44,0.76-0.87,1.51-1.31,2.27c1.78,1.2,3.86,2.13,5.25,3.67
			c1.04,1.16,1.2,3.11,1.75,4.7c-1.64,0.49-3.35,1.57-4.89,1.36c-4.97-0.69-9.88-1.82-14.8-2.85c-19.67-4.12-39.48-7.66-58.96-12.53
			c-36.36-9.09-72.36-19.58-107.22-33.49c-26.55-10.6-53.06-21.37-79.09-33.18c-18.74-8.51-36.85-18.49-54.89-28.47
			c-16.59-9.18-32.96-18.83-48.97-29c-16.01-10.17-31.67-20.94-47.08-32c-14.14-10.15-27.81-20.97-41.54-31.69
			c-1.59-1.24-2.19-3.75-3.25-5.67c-1.38-2.5-2.21-5.6-4.22-7.39c-11.39-10.13-23.6-19.38-34.49-30
			c-15.41-15.03-30.24-30.7-44.71-46.65c-10.31-11.36-19.78-23.52-29.3-35.58c-2.54-3.21-5.42-3.13-7.44-1.16
			c-8.22,8.01-16.46,16.09-23.81,24.88c-4.72,5.66-4.58,13.43-1.43,19.62c9.41,18.5,21.71,35.21,35.5,50.66
			c11.32,12.67,23.14,24.97,35.54,36.59c18.63,17.46,37.52,34.72,57.13,51.06c17.65,14.7,36.18,28.39,54.77,41.92
			c27.3,19.87,55.96,37.71,85.54,53.96c19.89,10.92,40.19,21.14,60.64,30.97c17.62,8.47,35.4,16.76,53.66,23.67
			c27.74,10.49,55.72,20.47,84.05,29.22c24.16,7.47,48.91,13.09,73.49,19.14c10.36,2.55,20.95,4.18,31.46,6.08
			c10.37,1.88,20.75,3.74,31.17,5.31c11.6,1.74,23.23,3.29,34.88,4.65c7.98,0.93,16.01,1.4,24.02,2.05
			c12.6,1.01,25.2,2.9,37.79,2.83c38-0.2,76-1.07,113.99-1.9c8.36-0.18,16.72-1.06,25.03-2c16.21-1.83,32.4-3.88,48.58-5.95
			c12.27-1.57,24.6-2.93,36.77-5.11c16.24-2.92,32.46-6.09,48.48-9.98c28.69-6.96,57.55-13.48,85.74-22.13
			c33.41-10.24,66.57-21.58,99.14-34.22c29.01-11.25,57.3-24.44,85.49-37.68c27.27-12.82,54.15-26.49,80.91-40.35
			c26.72-13.84,53.21-28.15,79.58-42.66c19.13-10.53,37.88-21.73,56.83-32.57c1.2-0.69,2.7-0.87,4.06-1.29
			c0.38,0.43,0.77,0.86,1.15,1.29c-11.15,17.06-21.92,34.38-33.56,51.1c-14.62,21.02-29.12,42.08-40.71,64.98
			c-4.29,8.47-7.18,17.65-7.04,26.98c0.18,12.34,5.45,23.21,13.92,32.3c0.72,0.78,2.5,1.42,3.37,1.07
			c5.54-2.22,11.41-4.05,16.32-7.3c11.9-7.86,24.05-15.6,34.76-24.93c12.98-11.31,25.63-23.34,36.51-36.63
			c12.07-14.74,22.42-30.97,32.72-47.06c21.89-34.2,43.35-68.68,64.78-103.17c4.25-6.84,7.05-14.39,4.54-22.75
			c-7.16-23.75-19.95-44.29-36.62-62.37c-10.9-11.82-24.65-15-40.61-12.47c-16.3,2.58-32.83,4.42-49.31,4.93
			c-20.39,0.63-40.85,0.1-61.23-0.93c-17.15-0.87-34.28-2.7-51.31-4.97c-15.58-2.08-31.33-4.15-46.45-8.28
			c-33.12-9.05-65.87-19.45-98.81-29.17c-6.01-1.77-12.15-3.35-18.33-4.25c-4.07-0.59-6.1,2.56-5.27,6.29
			c0.86,3.89,1.87,8.28,4.33,11.17c7.3,8.57,11.46,18.79,16.57,28.55c3.69,7.04,8.22,13.83,15.17,17.69
			c12.96,7.18,26.01,14.51,39.78,19.85c23.42,9.09,47.2,17.37,71.23,24.68c18.35,5.58,37.29,9.27,56.04,13.52
			c7.91,1.79,16.01,2.7,23.97,4.26c5.02,0.98,6.01,2.61,3.19,6.45c-2.62,3.57-5.97,7.06-9.78,9.23
			c-15.17,8.67-30.43,17.23-46.04,25.05c-34.45,17.27-69.06,34.23-103.76,51c-26.62,12.86-53.08,26.19-80.34,37.55
			c-29.73,12.38-60.12,23.28-90.57,33.78c-20.72,7.15-41.9,13.11-63.15,18.5c-22.89,5.8-46.07,10.48-69.2,15.32
			c-12.54,2.63-25.19,4.83-37.86,6.76c-13.05,1.99-26.19,3.46-39.29,5.09c-11.02,1.37-22.03,2.81-33.07,3.93
			c-8.99,0.91-18.01,1.57-27.03,2C1187.64,1434.13,1171.31,1434.66,1154.98,1435.3z M340.75,859.06
			c7.72-9.85,17.97-13.71,28.91-13.1c16.15,0.91,29.35,10.25,28.55,29.83c-0.53,13.03-7.01,23.3-19.92,27.92
			c-15.57,5.57-31.24,10.96-45.47,19.71c-9.26,5.69-17.44,12.52-22.45,22.24c-7.19,13.99-6.98,28.72-3.07,43.63
			c3.75,14.32,12.73,24.38,26.79,27.94c18.41,4.67,35.69,0.04,50.97-11.1c5.12-3.73,9.56-8.41,14.45-12.78
			c0.93,1.75,1.92,3.09,2.39,4.6c4.3,13.54,16.93,22.86,34.4,20.75c15.37-1.86,26.65-10.16,36.32-21.3c1.1-1.27,0.45-4.07,0.61-6.16
			c-1.67,0.62-3.36,1.18-4.99,1.9c-0.57,0.25-0.9,1.16-1.46,1.31c-3.07,0.81-6.36,2.47-9.24,1.96c-4-0.71-4.39-4.67-4.37-8.35
			c0.07-12.65,0.25-25.31-0.01-37.96c-0.51-24.84-0.65-49.72-2.21-74.51c-0.8-12.67-7.03-23.51-18.07-31
			c-13.96-9.47-29.96-11.85-46.1-12.73c-14.24-0.77-28.47,0.74-42.06,5.81c-12.51,4.67-22.04,12.17-25.82,25.72
			c-2.24,8.03-2.74,15.61,2.41,22.8c6.22,8.68,15.1,10.64,24.79,9.26c5.72-0.81,10.73-4.28,11.79-10.34
			c1.05-6.07,1.29-12.41-5.18-16.63C348.6,865.82,344.98,862.44,340.75,859.06z M1524.69,919.68c0.73-9.89-1.27-21.43-5.05-32.7
			c-6.9-20.55-18.76-36.96-38.77-46.7c-14.99-7.3-30.65-9.75-47.27-8.78c-9.84,0.57-19.01,2.93-27.53,7.27
			c-21.28,10.84-34.01,29.03-41.17,51.2c-5.55,17.2-6.59,34.96-4.18,52.92c2.82,20.95,10.72,39.32,26.05,54.34
			c19.37,18.98,42.86,25.46,68.82,21.05c21.61-3.67,38.93-15.47,51.22-34.11C1519.32,965.19,1525.21,944.39,1524.69,919.68z
			 M787.95,977.77c-3.12,2.25-6.13,4.45-9.17,6.6c-16.46,11.64-35.73,14.28-54.15,3.53c-18.1-10.57-27.27-27.07-31.49-46.87
			c-0.95-4.44,0.36-8.13,5.03-10.01c1.49-0.6,2.83-1.57,4.2-2.43c23.02-14.33,46.07-28.59,69.01-43.04
			c5.95-3.75,11.02-16.72,9.44-23.14c-2.69-10.98-9.32-19.05-19.12-24.36c-16.59-8.98-34.62-7.92-52.03-4.8
			c-19.89,3.56-36.48,13.96-49.67,29.84c-16.6,19.97-23.75,43.15-24.76,68.52c-0.27,6.81,0.88,13.73,1.92,20.52
			c2.98,19.5,11.51,36.39,26.93,48.69c24.08,19.21,51.56,22.13,80.59,13.83c15.46-4.42,28.14-13.58,39.16-24.95
			C786.39,987.06,791.12,984.59,787.95,977.77z M1968.72,1006.06c-5.39-0.48-10.83-0.69-16.16-1.53c-4.89-0.77-6.55-4.89-3.99-9.2
			c1.83-3.07,3.96-5.96,5.91-8.96c20.65-31.91,41.32-63.8,61.91-95.75c5.37-8.32,10.72-16.67,15.63-25.27
			c3.42-6,4.33-12.93-0.28-18.45c-3.24-3.89-8.01-7.39-12.78-8.92c-8.27-2.66-17.01-4.2-25.67-5.21
			c-10.61-1.23-21.34-1.88-32.02-1.93c-8.51-0.04-17.13,0.61-25.53,2.01c-8.87,1.47-17.9,3.28-26.22,6.56
			c-12.82,5.06-17.19,21.32-4.74,31.18c3.79,3,6.73,2.52,9.62-1.28c4.65-6.1,9.01-12.92,15.03-17.36
			c13.07-9.65,28.12-8.96,43.03-4.65c5.95,1.72,6.17,3.2,3.07,8.93c-1.16,2.14-2.24,4.33-3.56,6.37
			c-25.26,38.96-50.48,77.95-75.89,116.82c-9.79,14.98-3.81,25.75,10.2,32.2c15.98,7.36,33.18,7.92,50.19,8.75
			c9.95,0.49,20.08-0.62,30-1.92c10.74-1.41,21.5-3.29,31.94-6.12c6.72-1.82,13.95-4.63,15.59-12.97c0.66-3.37,0.21-6.95,0.41-10.43
			c0.27-4.72-1.98-8.25-5.35-11.09c-4.63-3.9-9.79-2.24-13.24,2.63c-4.3,6.08-8.92,12.31-14.63,16.96
			C1991.94,1004.99,1980.54,1006.66,1968.72,1006.06z"/>
		<path class="st1" d="M1154.98,1435.3c16.33-0.64,32.67-1.17,48.99-1.96c9.02-0.43,18.05-1.09,27.03-2
			c11.04-1.12,22.05-2.56,33.07-3.93c13.11-1.63,26.24-3.1,39.29-5.09c12.67-1.93,25.31-4.13,37.86-6.76
			c23.12-4.84,46.31-9.52,69.2-15.32c21.25-5.39,42.43-11.35,63.15-18.5c30.46-10.5,60.85-21.4,90.57-33.78
			c27.26-11.36,53.72-24.69,80.34-37.55c34.7-16.76,69.31-33.73,103.76-51c15.61-7.82,30.87-16.39,46.04-25.05
			c3.8-2.17,7.16-5.65,9.78-9.23c2.81-3.84,1.82-5.48-3.19-6.45c-7.96-1.55-16.06-2.47-23.97-4.26
			c-18.75-4.24-37.68-7.93-56.04-13.52c-24.03-7.31-47.82-15.59-71.23-24.68c-13.76-5.34-26.82-12.67-39.78-19.85
			c-6.96-3.86-11.48-10.65-15.17-17.69c-5.11-9.75-9.26-19.97-16.57-28.55c-2.46-2.89-3.48-7.28-4.33-11.17
			c-0.82-3.73,1.21-6.88,5.27-6.29c6.19,0.9,12.32,2.48,18.33,4.25c32.94,9.72,65.69,20.12,98.81,29.17
			c15.11,4.13,30.86,6.2,46.45,8.28c17.03,2.27,34.16,4.1,51.31,4.97c20.38,1.03,40.84,1.56,61.23,0.93
			c16.48-0.51,33.01-2.35,49.31-4.93c15.96-2.53,29.71,0.65,40.61,12.47c16.67,18.08,29.46,38.62,36.62,62.37
			c2.52,8.36-0.28,15.9-4.54,22.75c-21.43,34.49-42.89,68.97-64.78,103.17c-10.3,16.09-20.65,32.32-32.72,47.06
			c-10.88,13.29-23.53,25.32-36.51,36.63c-10.71,9.33-22.87,17.07-34.76,24.93c-4.91,3.25-10.79,5.07-16.32,7.3
			c-0.87,0.35-2.65-0.29-3.37-1.07c-8.47-9.1-13.74-19.97-13.92-32.3c-0.14-9.34,2.76-18.51,7.04-26.98
			c11.59-22.9,26.08-43.96,40.71-64.98c11.63-16.72,22.4-34.04,33.56-51.1c-0.38-0.43-0.77-0.86-1.15-1.29
			c-1.36,0.42-2.85,0.6-4.06,1.29c-18.95,10.84-37.7,22.04-56.83,32.57c-26.37,14.51-52.85,28.82-79.58,42.66
			c-26.76,13.86-53.64,27.53-80.91,40.35c-28.18,13.24-56.48,26.43-85.49,37.68c-32.58,12.64-65.73,23.98-99.14,34.22
			c-28.19,8.64-57.05,15.17-85.74,22.13c-16.03,3.89-32.25,7.06-48.48,9.98c-12.17,2.19-24.49,3.54-36.77,5.11
			c-16.18,2.08-32.37,4.12-48.58,5.95c-8.31,0.94-16.67,1.81-25.03,2c-37.99,0.83-75.99,1.7-113.99,1.9
			c-12.59,0.07-25.19-1.82-37.79-2.83c-8.01-0.64-16.04-1.12-24.02-2.05c-11.65-1.36-23.28-2.9-34.88-4.65
			c-10.42-1.57-20.8-3.43-31.17-5.31c-10.51-1.9-21.1-3.53-31.46-6.08c-24.58-6.05-49.33-11.67-73.49-19.14
			c-28.33-8.75-56.31-18.73-84.05-29.22c-18.26-6.9-36.05-15.2-53.66-23.67c-20.45-9.83-40.75-20.04-60.64-30.97
			c-29.58-16.25-58.25-34.09-85.54-53.96c-18.58-13.53-37.12-27.22-54.77-41.92c-19.61-16.34-38.5-33.59-57.13-51.06
			c-12.4-11.62-24.22-23.92-35.54-36.59c-13.79-15.44-26.09-32.15-35.5-50.66c-3.15-6.19-3.3-13.97,1.43-19.62
			c7.35-8.79,15.58-16.87,23.81-24.88c2.02-1.96,4.9-2.05,7.44,1.16c9.52,12.06,18.98,24.21,29.3,35.58
			c14.47,15.95,29.3,31.62,44.71,46.65c10.89,10.62,23.1,19.87,34.49,30c2.01,1.79,2.84,4.89,4.22,7.39
			c1.06,1.92,1.66,4.43,3.25,5.67c13.72,10.72,27.39,21.54,41.54,31.69c15.41,11.06,31.07,21.83,47.08,32
			c16.01,10.17,32.37,19.82,48.97,29c18.03,9.97,36.14,19.96,54.89,28.47c26.02,11.81,52.54,22.58,79.09,33.18
			c34.85,13.92,70.85,24.4,107.22,33.49c19.48,4.87,39.29,8.41,58.96,12.53c4.92,1.03,9.83,2.16,14.8,2.85
			c1.54,0.21,3.26-0.87,4.89-1.36c-0.55-1.6-0.71-3.55-1.75-4.7c-1.39-1.55-3.47-2.48-5.25-3.67c0.44-0.76,0.87-1.51,1.31-2.27
			c5.73,0.44,11.48,0.74,17.2,1.36c7.29,0.79,14.54,2.01,21.84,2.76c14.02,1.44,28.05,2.74,42.09,3.98
			c5.74,0.51,11.51,0.83,17.27,1.03c11.41,0.39,22.83,0.64,34.25,0.94C1134.15,1435.31,1144.56,1435.3,1154.98,1435.3z"/>
		<path class="st2" d="M872.14,827.7c-0.5,16.46-1,32.92-1.5,49.38c0.6,0.15,1.21,0.3,1.81,0.45c3.5-4.18,6.98-8.36,10.49-12.53
			c11.97-14.23,25.33-26.7,43.88-31.63c24.15-6.42,46.24,9.11,47.17,34.89c1.01,28.11-14.62,45.65-36.72,59.31
			c-1.1,0.68-2.33,1.15-3.47,1.77c-0.27,0.15-0.43,0.5-1.09,1.31c6.33,12.87,12.25,26.31,19.41,39.05
			c7.99,14.22,16.6,28.16,25.87,41.57c13.04,18.86,28.16,36.02,48.68,47.09c10.54,5.69,22.02,9.24,34.42,6.25
			c1.08-0.26,2.29-0.03,3.44-0.03c0.37,0.42,0.73,0.85,1.1,1.27c-1.78,1.94-3.19,4.73-5.39,5.7c-14.71,6.44-29.86,11.08-46.21,11.07
			c-20.78-0.02-38.89-7.02-55.17-19.6c-20.11-15.53-34.59-35.64-47.3-57.27c-12.9-21.95-22.89-45.26-32.84-68.61
			c-1.85-4.34,1.01-5.84,3.16-7.77c7.09-6.36,14.86-12.03,21.49-18.82c10.45-10.73,18.94-22.94,22.1-37.97
			c0.8-3.82,0.9-7.99,0.35-11.86c-0.83-5.83-8.18-9.34-13.45-5.98c-5.76,3.67-11.56,7.93-15.79,13.18
			c-6.93,8.6-13.02,17.96-18.71,27.45c-5.12,8.55-6.43,18.4-6.83,28.24c-0.5,12.26-0.97,24.52-0.97,36.78
			c0,12.42,0.53,24.85,0.94,37.27c0.45,13.6-9.73,20.93-22.1,21.89c-3.31,0.26-6.69-0.27-9.98,0.1
			c-13.52,1.52-22.8-11.33-21.92-22.07c0.08-0.98-0.09-1.99-0.14-2.98c0-8.33-0.01-16.66-0.01-24.98c0-10.32,0-20.64,0.01-30.96
			c-0.17-7.57-0.36-15.13-0.46-22.7c-0.02-1.12,0.59-2.24,0.59-3.36c-0.02-30.98-0.08-61.96-0.14-92.93c0-8.32,0-16.63,0-24.95
			c0.06-5.49,0.24-10.98,0.12-16.47c-0.08-3.54-0.6-7.08-0.92-10.61c-1.73-3.32-2.91-7.15-5.34-9.84
			c-3.47-3.84-7.79-1.38-11.81-0.11c-1.76,0.55-3.68,0.58-5.76,0.09c3.29-6.19,9.3-8.1,14.57-11c9.87-5.44,20.68-8.24,31.71-8.81
			c12.99-0.67,29.07,3.33,30.53,22.19c0.94,12.16,1.47,24.36,2.18,36.54C872.14,807.04,872.14,817.37,872.14,827.7z"/>
		<path class="st3" d="M1561.48,900.68c0.05-2.66,0.21-5.32,0.14-7.98c-0.29-11.07-0.47-22.15-1.07-33.2
			c-0.24-4.45-5.26-6.74-9.34-4.65c-2.59,1.33-4.98,3.08-7.64,4.23c-1.13,0.49-3.07,0.36-3.99-0.35c-0.59-0.46-0.35-2.61,0.13-3.75
			c3.12-7.52,10.21-10.62,16.56-14.47c11.84-7.17,24.71-9.9,38.49-8.85c8.17,0.62,16.69,7.81,18.7,16.96
			c1.22,5.55,2.02,11.32,2.05,16.99c0.19,34.62,0.01,69.24,0.19,103.86c0.03,5.16,1,10.4,2.14,15.46c1.12,4.95,6.39,7.08,11.51,5.8
			c11.48-2.87,20.89-8.75,27.9-18.32c1.02-1.39,1.59-3.12,2.37-4.69c0.32-0.86,0.92-1.71,0.92-2.57
			c0.06-10.36,0.05-20.71-0.02-31.07c-0.01-0.85-0.58-1.71-0.89-2.56c-0.02-13.71-0.06-27.42-0.01-41.13
			c0.01-1.57,0.52-3.15,0.8-4.72c0.05-4.74,0.24-9.48,0.12-14.21c-0.11-3.97-0.58-7.93-0.89-11.9c0.24-7.27-3.84-6.84-8.07-4.84
			c-3.79,1.79-7.36,4.06-12.48,6.93c0.2-2.86-0.34-5.12,0.55-6.31c8.62-11.56,18.87-21.06,34.02-22.54
			c7.1-0.7,14.38-0.63,21.49,0.01c9.49,0.86,17.26,8.77,18.32,18.3c1.01,9.14,1.93,18.34,1.98,27.51c0.22,35.97,0.17,71.95,0,107.92
			c-0.02,4.66,1.87,7.28,5.71,9.31c4.05,2.14,6.34-1.07,9.19-2.6c1.81-0.97,3.54-2.1,5.3-3.17c0.45,0.44,0.89,0.88,1.34,1.32
			c-0.99,2.06-1.61,4.43-3.03,6.14c-12.53,15.14-28.35,23.19-48.32,20.98c-13.58-1.5-25.49-10.76-25.11-26.73
			c0.04-1.68-0.72-3.39-1.35-6.17c-2.11,2.06-3.64,3.44-5.03,4.94c-8.66,9.33-18.21,17.62-29.98,22.66
			c-15.92,6.82-32,9.14-47.4-1.63c-9.07-6.34-13.3-15.76-13.98-26.27c-0.99-15.37-0.84-30.81-1.17-46.22
			c-0.07-3.16-0.11-6.32-0.17-9.48C1561.48,919.98,1561.48,910.33,1561.48,900.68z"/>
		<path class="st3" d="M1239.64,851.7c0.05-3.17,0.15-6.34,0.15-9.5c0.02-23.64-0.02-47.29,0.04-70.93c0.01-5.58-4.05-5.2-7.18-4.42
			c-13.15,3.29-26.34,6.55-39.22,10.73c-11.75,3.81-21.94,10.57-30.59,19.57c-6.77,7.04-8.15,15.76-6.69,24.65
			c1.03,6.25,7.93,12.58,16.5,8.5c2.47-1.17,4.76-2.73,7.15-4.07c5.82-3.27,11.5-4.16,17.41,0.15c5.27,3.85,4.79,9.51,4.38,14.56
			c-0.5,6.23-2.04,12.31-6.59,17.47c-4.57,5.18-10.15,8.23-16.55,9.13c-13.72,1.93-25.87-1.54-34.96-12.73
			c-6.41-7.89-9.63-16.8-7.65-27.03c1.47-7.6,2.5-15.43,5.22-22.6c3.7-9.75,10.43-17.74,18.52-24.41
			c18.7-15.39,41.13-22.23,64.24-26.78c12.64-2.49,25.65-3.42,38.54-4.14c15.72-0.88,31.51-1.46,47.22-0.95
			c18.21,0.59,36.41,2.22,54.56,3.95c10.79,1.03,15.29,9.28,12.36,21.27c-2.17,8.86-4.42,11.04-13.66,6.18
			c-14.97-7.87-30.75-12.99-47.82-13.61c-4.09-0.15-8.19-0.52-12.26-1c-4.02-0.47-5.12,1.17-5.1,5.1
			c0.15,24.81,0.08,49.62,0.06,74.43c0,1.83-0.1,3.66-0.15,5.49c-0.28,1.57-0.77,3.14-0.79,4.72c-0.08,7.08-0.03,14.17-0.03,21.26
			c0.01,10,0.01,19.99,0.02,29.99c0.01,9.66,0.01,19.33,0.02,28.99c0.01,9,0.01,17.99,0.02,26.99c0,10.03,0,20.05,0,30.08
			c0.33,16.81-10.34,26.14-26.79,25.84c-4.24-0.08-8.5-0.47-12.71-0.98c-10.69-1.29-17.48-11.54-17.52-22.05
			c-0.09-27.3-0.02-54.6-0.04-81.9c0-4-0.1-8-0.16-12C1239.64,884.99,1239.64,868.35,1239.64,851.7z"/>
		<path class="st2" d="M186.2,767.76c-4.15-0.01-8.47-0.76-12.43,0.1c-20.42,4.39-40.14,10.58-57.53,22.82
			c-11.49,8.08-17.09,22.02-12.93,33.98c1.86,5.34,5.39,7.5,10.76,6.01c6.55-1.81,13.2-3.53,19.43-6.17
			c7.18-3.03,14.28,3.04,14.84,10.73c1.13,15.32-5.64,28.13-21.91,31.75c-20.39,4.54-41.93-7.64-44.17-29.71
			c-3.06-29.97,11.6-49.74,35.46-64.55c17.11-10.62,36.13-16.06,55.88-18.93c11.98-1.74,24.04-3.36,36.12-3.92
			c18.72-0.88,37.51-1.4,56.24-0.95c14.23,0.35,28.45,2.19,42.62,3.89c6.78,0.81,13.54,3.43,15.42,10.82
			c1.99,7.81-1.86,14.32-6.74,19.67c-9.96-3.99-19.34-8.59-29.23-11.44c-9.3-2.68-19.13-3.55-28.75-5.12
			c-3.07-0.5-6.18-0.73-9.28-1.02c-4.03-0.37-5.82,0.98-5.79,5.55c0.17,24.14-0.01,48.29-0.06,72.43c-0.28,1.42-0.8,2.84-0.8,4.26
			c-0.03,48.24-0.01,96.49,0,144.73c0.54,9.63-1.63,18.12-10.83,23.03c-12.71,6.79-32.89,6.34-42.68-8.64
			c-2.41-3.7-3.33-8.98-3.35-13.54c-0.2-36.97-0.03-73.95,0.03-110.93c0.27-1.74,0.78-3.48,0.79-5.23
			c0.07-10.57,0.03-21.15,0.03-31.72c0-24.12,0.03-48.23-0.04-72.35C187.28,771.48,186.58,769.62,186.2,767.76z"/>
		<path class="st2" d="M340.75,859.06c4.23,3.38,7.86,6.76,11.95,9.44c6.46,4.23,6.23,10.57,5.18,16.63
			c-1.05,6.06-6.07,9.53-11.79,10.34c-9.7,1.38-18.57-0.58-24.79-9.26c-5.15-7.2-4.65-14.77-2.41-22.8
			c3.78-13.55,13.31-21.04,25.82-25.72c13.59-5.08,27.82-6.59,42.06-5.81c16.14,0.88,32.15,3.25,46.1,12.73
			c11.03,7.49,17.27,18.32,18.07,31c1.56,24.78,1.71,49.66,2.21,74.51c0.26,12.65,0.08,25.31,0.01,37.96
			c-0.02,3.68,0.37,7.64,4.37,8.35c2.88,0.51,6.17-1.15,9.24-1.96c0.56-0.15,0.89-1.06,1.46-1.31c1.63-0.72,3.32-1.28,4.99-1.9
			c-0.16,2.09,0.5,4.89-0.61,6.16c-9.67,11.14-20.95,19.44-36.32,21.3c-17.47,2.11-30.1-7.21-34.4-20.75
			c-0.48-1.51-1.47-2.85-2.39-4.6c-4.89,4.37-9.33,9.05-14.45,12.78c-15.29,11.15-32.56,15.77-50.97,11.1
			c-14.06-3.56-23.04-13.62-26.79-27.94c-3.91-14.91-4.12-29.65,3.07-43.63c5-9.72,13.19-16.55,22.45-22.24
			c14.23-8.75,29.9-14.14,45.47-19.71c12.9-4.62,19.38-14.88,19.92-27.92c0.8-19.58-12.4-28.91-28.55-29.83
			C358.72,845.35,348.46,849.21,340.75,859.06z M397.82,935.99c0.2-0.02,0.41-0.05,0.61-0.07c-0.41-4.75-0.47-9.56-1.39-14.21
			c-0.37-1.87-2.32-4.31-4.07-4.86c-7.73-2.45-20.87,2.94-25.76,9.81c-5.59,7.84-8.73,16.41-10.22,26
			c-2.02,12.98,0.29,24.72,7.59,35.37c1.69,2.46,5.44,5.46,7.83,5.13c7.52-1.01,14.86-3.14,19.46-10.45
			c7.21-11.47,7.2-24.22,7.2-36.99C399.09,942.48,398.27,939.24,397.82,935.99z"/>
		<path class="st3" d="M1524.69,919.68c0.51,24.72-5.37,45.51-17.88,64.49c-12.29,18.64-29.61,30.44-51.22,34.11
			c-25.96,4.41-49.45-2.07-68.82-21.05c-15.33-15.02-23.23-33.39-26.05-54.34c-2.41-17.96-1.38-35.73,4.18-52.92
			c7.16-22.17,19.89-40.36,41.17-51.2c8.53-4.34,17.69-6.7,27.53-7.27c16.62-0.97,32.28,1.48,47.27,8.78
			c20.02,9.74,31.87,26.15,38.77,46.7C1523.42,898.24,1525.42,909.79,1524.69,919.68z M1415.24,925.26
			c0.5,7.74,0.66,15.53,1.57,23.22c1.37,11.63,2.91,23.26,5.04,34.76c1.6,8.62,10.53,16.54,17.92,17.4
			c8.87,1.02,15.18-3.21,20.46-13.09c5.71-10.71,7.41-22.59,8.26-34.35c0.91-12.62,0.6-25.37,0.1-38.03
			c-0.47-11.96-2-23.87-2.85-35.81c-0.75-10.49-5.27-18.94-12.85-26.08c-4.08-3.85-14.94-5.54-20.17-1.33
			c-6.46,5.2-10.17,11.93-11.85,19.52C1416.94,889.12,1415.16,907.08,1415.24,925.26z"/>
		<path class="st2" d="M787.95,977.77c3.17,6.82-1.56,9.29-4.1,11.91c-11.02,11.37-23.7,20.53-39.16,24.95
			c-29.03,8.3-56.51,5.38-80.59-13.83c-15.42-12.3-23.94-29.19-26.93-48.69c-1.04-6.79-2.19-13.71-1.92-20.52
			c1.01-25.37,8.16-48.55,24.76-68.52c13.2-15.88,29.78-26.28,49.67-29.84c17.41-3.11,35.44-4.18,52.03,4.8
			c9.8,5.31,16.43,13.37,19.12,24.36c1.57,6.43-3.49,19.39-9.44,23.14c-22.94,14.45-45.99,28.71-69.01,43.04
			c-1.37,0.86-2.72,1.83-4.2,2.43c-4.68,1.88-5.98,5.58-5.03,10.01c4.22,19.8,13.39,36.3,31.49,46.87
			c18.41,10.75,37.69,8.11,54.15-3.53C781.82,982.21,784.83,980.01,787.95,977.77z M690.27,918.22c2.58-1.14,3.79-1.54,4.87-2.16
			c10.27-5.9,20.53-11.82,30.78-17.75c3.55-2.06,8.58-2.86,8.82-8.12c0.33-7.29,0.59-14.66-0.1-21.9
			c-0.33-3.48-2.74-6.82-4.48-10.08c-5.83-10.86-20.97-12.95-28.36,1.13c-4.74,9.04-8.14,18.36-8.89,28.61
			C692.18,897.69,691.22,907.43,690.27,918.22z"/>
		<path class="st3" d="M1968.72,1006.06c11.81,0.6,23.22-1.07,32.48-8.62c5.71-4.65,10.32-10.88,14.63-16.96
			c3.45-4.88,8.61-6.53,13.24-2.63c3.37,2.84,5.62,6.37,5.35,11.09c-0.2,3.48,0.26,7.06-0.41,10.43
			c-1.64,8.34-8.88,11.15-15.59,12.97c-10.44,2.83-21.2,4.71-31.94,6.12c-9.93,1.31-20.05,2.41-30,1.92
			c-17.01-0.84-34.22-1.4-50.19-8.75c-14.01-6.45-19.99-17.22-10.2-32.2c25.4-38.87,50.62-77.86,75.89-116.82
			c1.32-2.04,2.4-4.23,3.56-6.37c3.11-5.74,2.89-7.21-3.07-8.93c-14.91-4.31-29.96-5-43.03,4.65c-6.02,4.44-10.38,11.26-15.03,17.36
			c-2.89,3.8-5.83,4.27-9.62,1.28c-12.45-9.86-8.08-26.12,4.74-31.18c8.32-3.28,17.34-5.09,26.22-6.56
			c8.4-1.39,17.01-2.05,25.53-2.01c10.68,0.05,21.41,0.7,32.02,1.93c8.66,1,17.4,2.55,25.67,5.21c4.77,1.53,9.54,5.03,12.78,8.92
			c4.6,5.52,3.7,12.45,0.28,18.45c-4.9,8.6-10.26,16.94-15.63,25.27c-20.59,31.95-41.26,63.84-61.91,95.75
			c-1.94,3-4.08,5.89-5.91,8.96c-2.56,4.3-0.9,8.43,3.99,9.2C1957.9,1005.37,1963.33,1005.58,1968.72,1006.06z"/>
		<path class="st2" d="M557.19,984.72c-0.35,5.41-0.78,10.81-1.02,16.22c-0.43,9.58-5.54,15.29-14.62,17.42
			c-11,2.58-21.55,1.65-31.55-4.28c-6.04-3.58-7.64-9.24-7.7-15.33c-0.08-8.72,0.66-17.45,1.05-26.17c0.19-0.27,0.55-0.54,0.55-0.8
			c0.03-15.77,0.03-31.54,0-47.31c0-0.27-0.36-0.54-0.55-0.81c-0.39-19.41-0.73-38.81-1.22-58.22c-0.07-2.9-0.5-5.9-1.4-8.64
			c-2.16-6.64-6.49-8.43-13.58-6.27c-2.6,0.79-5.5,2.71-8.9-1.74c6.56-4.03,12.55-8.5,19.18-11.6c12.79-5.99,26.29-7.82,40.1-3.67
			c10.97,3.3,15.85,11.95,18.56,22.22c0.82,3.08,1.1,6.31,1.77,10.34c4.62-5.52,8.36-10.63,12.75-15.1
			c8.86-9.02,18.28-17.36,31.22-20.15c7.61-1.64,18.32,6.43,20.25,15.18c2.36,10.71-0.53,20.67-4.41,30.45
			c-0.38,0.95-1.57,1.57-2.88,2.82c-1.15-2.06-2.17-3.65-2.95-5.35c-4.36-9.4-12.56-10.68-20.17-8.87
			c-11.55,2.76-21.46,8.97-30.42,16.83c-5.02,4.4-2.53,9.77-2.94,14.8c0,13.64,0,27.28,0,40.92c-0.11,4.69-0.22,9.37-0.33,14.06
			c-0.28,1.41-0.79,2.83-0.79,4.24C557.13,965.51,557.18,975.12,557.19,984.72z"/>
		<path class="st3" d="M1765.71,885.68c-0.39-8.41-0.77-16.83-1.16-25.24c-0.38-8.05-6.21-11.98-13.93-9.94
			c-2.72,0.72-5.82,0-8.75-0.07c1.9-2.09,3.48-4.69,5.77-6.19c13.74-9.01,28.87-13.79,45.35-12.43
			c14.65,1.21,25.35,10.32,25.59,27.2c0.04,2.52,0.7,5.03,1.23,8.63c4.03-5.29,7.22-9.88,10.83-14.11
			c7.73-9.05,16.35-17.38,28.01-20.71c13.96-3.98,23.96,0.52,26.06,16.05c1.15,8.5-0.59,16.1-3.32,23.74
			c-1.81,5.05-3.95,5.31-7.07,1.33c-8.15-10.4-15.7-12.41-28.32-6.19c-7.95,3.92-15.41,8.91-22.77,13.89
			c-4.34,2.94-3.59,8.23-3.61,12.63c-0.16,34.46-0.13,68.93-0.07,103.4c0.02,13.56-2.99,16.57-14.63,19.9
			c-10.83,3.1-21.51,4.08-31.37-2.98c-4.77-3.42-7.75-8.19-7.88-13.97c-0.28-12.33,0.01-24.67,0.06-37
			c0.28-1.42,0.79-2.84,0.79-4.27c0.05-23.13,0.05-46.26,0-69.39C1766.5,888.53,1765.98,887.1,1765.71,885.68z"/>
		<path class="st4" d="M243.34,992.72c-0.01-48.24-0.03-96.49,0-144.73c0-1.42,0.52-2.84,0.8-4.26c0.06,26.81,0.13,53.62,0.16,80.44
			c0.03,21.15,0.03,42.31-0.04,63.46C244.25,989.32,243.66,991.02,243.34,992.72z"/>
		<path class="st5" d="M1765.71,885.68c0.28,1.42,0.79,2.84,0.79,4.27c0.05,23.13,0.05,46.26,0,69.39c0,1.42-0.52,2.84-0.79,4.27
			C1765.71,937.63,1765.71,911.66,1765.71,885.68z"/>
		<path class="st6" d="M186.2,767.76c0.38,1.86,1.07,3.72,1.08,5.59c0.07,24.12,0.05,48.23,0.04,72.35
			c-0.28-0.01-0.55-0.01-0.83-0.02c-0.06-23.31-0.11-46.62-0.17-69.93C186.32,773.08,186.25,770.42,186.2,767.76z"/>
		<path class="st7" d="M1239.64,851.7c0,16.64,0,33.29,0,49.93c-0.28-1.09-0.8-2.17-0.8-3.26c-0.05-14.47-0.05-28.94,0-43.4
			C1238.85,853.88,1239.36,852.79,1239.64,851.7z"/>
		<path class="st8" d="M503.34,923.67c0.19,0.27,0.55,0.54,0.55,0.81c0.03,15.77,0.03,31.54,0,47.31c0,0.27-0.36,0.54-0.55,0.8
			C503.34,956.28,503.34,939.98,503.34,923.67z"/>
		<path class="st0" d="M558.31,937.61c0-13.64,0-27.28,0-40.92c0.28,1.59,0.78,3.17,0.79,4.76c0.07,10.47,0.07,20.94,0,31.4
			C559.1,934.44,558.59,936.02,558.31,937.61z"/>
		<path class="st9" d="M186.5,845.67c0.28,0.01,0.55,0.01,0.83,0.02c0,10.57,0.04,21.15-0.03,31.72c-0.01,1.74-0.51,3.48-0.79,5.23
			C186.51,870.32,186.5,858,186.5,845.67z"/>
		<path class="st10" d="M1659.65,931.53c0.31,0.85,0.89,1.7,0.89,2.56c0.07,10.36,0.08,20.71,0.02,31.07c0,0.86-0.6,1.71-0.92,2.57
			C1659.64,955.66,1659.64,943.59,1659.65,931.53z"/>
		<path class="st11" d="M557.19,984.72c-0.01-9.61-0.06-19.21,0-28.82c0.01-1.42,0.52-2.83,0.79-4.24
			c0.05,10.15,0.12,20.3,0.11,30.46C558.09,982.99,557.5,983.86,557.19,984.72z"/>
		<path class="st12" d="M816.86,938.66c0,10.32,0,20.64-0.01,30.96c-0.27,0.01-0.55,0.01-0.82,0.02c0-8.75-0.05-17.5,0.03-26.25
			C816.07,941.81,816.58,940.23,816.86,938.66z"/>
		<path class="st13" d="M872.14,827.7c0-10.33,0-20.67-0.01-31c0.29,4.25,0.83,8.5,0.79,12.75
			C872.89,815.54,872.43,821.62,872.14,827.7z"/>
		<path class="st14" d="M1154.98,1435.3c-10.41,0-20.82,0-31.24,0c2.17-0.3,4.35-0.91,6.52-0.86
			C1138.5,1434.62,1146.74,1435,1154.98,1435.3z"/>
		<path class="st15" d="M1296.81,906.67c-0.01-10-0.01-19.99-0.02-29.99c0.27-0.01,0.55-0.01,0.82-0.02c0,9.99,0,19.99,0,29.98
			C1297.34,906.65,1297.08,906.66,1296.81,906.67z"/>
		<path class="st16" d="M1296.85,992.72c0-10.03,0-20.05,0-30.08c0.25-0.01,0.51-0.02,0.76-0.03c0.05,9.32,0.11,18.64,0.1,27.95
			C1297.71,991.29,1297.15,992.01,1296.85,992.72z"/>
		<path class="st17" d="M1561.48,900.68c0,9.65,0,19.3,0,28.94C1561.48,919.98,1561.48,910.33,1561.48,900.68z"/>
		<path class="st18" d="M1296.81,906.67c0.27-0.01,0.53-0.02,0.8-0.02c0,9.66,0,19.32,0,28.99c-0.26,0.01-0.52,0.02-0.78,0.03
			C1296.82,925.99,1296.82,916.33,1296.81,906.67z"/>
		<path class="st19" d="M1296.83,935.66c0.26-0.01,0.52-0.02,0.78-0.03c0,9,0,17.99,0,26.99c-0.25,0.01-0.51,0.02-0.76,0.03
			C1296.84,953.65,1296.84,944.65,1296.83,935.66z"/>
		<path class="st20" d="M816.05,767.64c0.32,3.54,0.84,7.07,0.92,10.61c0.12,5.49-0.07,10.98-0.12,16.47
			c-0.28-0.01-0.56-0.01-0.83-0.01C816.03,785.69,816.04,776.66,816.05,767.64z"/>
		<path class="st21" d="M1659.66,859.57c0.31,3.97,0.78,7.93,0.89,11.9c0.13,4.73-0.06,9.48-0.12,14.21
			C1660.18,876.98,1659.92,868.27,1659.66,859.57z"/>
		<path class="st22" d="M1297.61,876.66c-0.27,0.01-0.55,0.01-0.82,0.02c0-7.09-0.06-14.17,0.03-21.26
			c0.02-1.58,0.52-3.15,0.79-4.72C1297.61,859.36,1297.61,868.01,1297.61,876.66z"/>
		<path class="st23" d="M816.03,969.63c0.27-0.01,0.55-0.01,0.82-0.02c0,8.33,0.01,16.66,0.01,24.98
			c-0.28-6.18-0.59-12.36-0.83-18.55C815.95,973.92,816.02,971.77,816.03,969.63z"/>
		<path class="st0" d="M816.02,794.71c0.28,0,0.56,0.01,0.83,0.01c0,8.32,0,16.63,0,24.95c-0.28-6.34-0.57-12.69-0.82-19.03
			C815.95,798.66,816.02,796.68,816.02,794.71z"/>
		<path class="st0" d="M397.82,935.99c0.44,3.24,1.26,6.49,1.26,9.73c-0.01,12.77,0.01,25.52-7.2,36.99
			c-4.6,7.31-11.94,9.44-19.46,10.45c-2.39,0.32-6.14-2.67-7.83-5.13c-7.3-10.65-9.61-22.39-7.59-35.37
			c1.49-9.6,4.63-18.16,10.22-26c4.89-6.87,18.03-12.26,25.76-9.81c1.75,0.55,3.7,3,4.07,4.86c0.92,4.65,0.98,9.46,1.39,14.21
			C398.23,935.94,398.03,935.97,397.82,935.99z"/>
		<path class="st0" d="M1415.24,925.26c-0.09-18.17,1.69-36.14,5.62-53.81c1.69-7.58,5.4-14.32,11.85-19.52
			c5.23-4.21,16.08-2.52,20.17,1.33c7.58,7.14,12.1,15.59,12.85,26.08c0.85,11.95,2.38,23.86,2.85,35.81
			c0.5,12.66,0.82,25.41-0.1,38.03c-0.85,11.76-2.54,23.64-8.26,34.35c-5.28,9.89-11.59,14.12-20.46,13.09
			c-7.39-0.85-16.32-8.77-17.92-17.4c-2.13-11.51-3.67-23.14-5.04-34.76C1415.9,940.78,1415.74,933,1415.24,925.26z"/>
		<path class="st0" d="M690.27,918.22c0.95-10.79,1.91-20.53,2.63-30.29c0.76-10.25,4.15-19.57,8.89-28.61
			c7.39-14.08,22.53-11.99,28.36-1.13c1.75,3.26,4.15,6.61,4.48,10.08c0.69,7.24,0.43,14.61,0.1,21.9
			c-0.24,5.26-5.27,6.07-8.82,8.12c-10.25,5.93-20.51,11.86-30.78,17.75C694.05,916.68,692.84,917.09,690.27,918.22z"/>
	</g>
</g>
</svg>
